HIERARCHY
ROOT root
{
	OFFSET	0	13.1	24.9
	CHANNELS 6  Xposition Yposition Zposition Xrotation Yrotation Zrotation
	JOINT spine_1
	{
		OFFSET	0	9.99999	0
		CHANNELS 3  Xrotation Yrotation Zrotation
		JOINT spine_2
		{
			OFFSET	0	112	-10
			CHANNELS 3  Xrotation Yrotation Zrotation
			JOINT spine_3
			{
				OFFSET	0	206.5	19.3
				CHANNELS 3  Xrotation Yrotation Zrotation
				JOINT spine_4
				{
					OFFSET	0	110.4	14.6
					CHANNELS 3  Xrotation Yrotation Zrotation
					JOINT neck_1
					{
						OFFSET	0	71.8	-50.3
						CHANNELS 3  Xrotation Yrotation Zrotation
						JOINT neck_2
						{
							OFFSET	0	86.2	-25.8
							CHANNELS 3  Xrotation Yrotation Zrotation
							JOINT head_ee
							{
								OFFSET	0	179.8	-8.7
								CHANNELS 3  Xrotation Yrotation Zrotation
								End Site
								{
									OFFSET	1	0	0
								}
							}
						}
					}
					JOINT left_clavicle
					{
						OFFSET	-43.2	22.4	-70.8
						CHANNELS 3  Xrotation Yrotation Zrotation
						JOINT left_shoulder
						{
							OFFSET	-93.9	-5.79999	48.7
							CHANNELS 3  Xrotation Yrotation Zrotation
							JOINT left_elbow
							{
								OFFSET	-291.4	-30.8	15.2
								CHANNELS 3  Xrotation Yrotation Zrotation
								JOINT left_lowarm_twist
								{
									OFFSET	-110.7	-3.89999	13.6
									CHANNELS 3  Xrotation Yrotation Zrotation
									JOINT left_hand
									{
										OFFSET	-110.7	-3.89999	13.6
										CHANNELS 3  Xrotation Yrotation Zrotation
										JOINT left_ee
										{
											OFFSET	-80.8	-5.10001	12.1
											CHANNELS 3  Xrotation Yrotation Zrotation
											End Site
											{
												OFFSET	1	0	0
											}
										}
									}
								}
							}
						}
					}
					JOINT right_clavicle
					{
						OFFSET	43.2	22.4	-70.8
						CHANNELS 3  Xrotation Yrotation Zrotation
						JOINT right_shoulder
						{
							OFFSET	93.9	-5.79999	48.7
							CHANNELS 3  Xrotation Yrotation Zrotation
							JOINT right_elbow
							{
								OFFSET	291.4	-30.8	15.2
								CHANNELS 3  Xrotation Yrotation Zrotation
								JOINT right_lowarm_twist
								{
									OFFSET	110.7	-3.89999	13.6
									CHANNELS 3  Xrotation Yrotation Zrotation
									JOINT right_hand
									{
										OFFSET	110.7	-3.89999	13.6
										CHANNELS 3  Xrotation Yrotation Zrotation
										JOINT right_ee
										{
											OFFSET	80.8	-5.10001	12.1
											CHANNELS 3  Xrotation Yrotation Zrotation
											End Site
											{
												OFFSET	1	0	0
											}
										}
									}
								}
							}
						}
					}
				}
			}
		}
	}
	JOINT left_hip
	{
		OFFSET	-82.8	-127.5	0.300001
		CHANNELS 3  Xrotation Yrotation Zrotation
		JOINT left_knee
		{
			OFFSET	-28.2	-396.7	2.2
			CHANNELS 3  Xrotation Yrotation Zrotation
			JOINT left_ankle
			{
				OFFSET	-11.7	-411.3	35.4
				CHANNELS 3  Xrotation Yrotation Zrotation
				JOINT left_toes
				{
					OFFSET	0	-60	-88.6
					CHANNELS 3  Xrotation Yrotation Zrotation
					JOINT left_foot_ee
					{
						OFFSET	-22.5	-16.5	-42.2
						CHANNELS 3  Xrotation Yrotation Zrotation
						End Site
						{
							OFFSET	1	0	0
						}
					}
				}
			}
		}
	}
	JOINT right_hip
	{
		OFFSET	82.8	-127.5	0.300001
		CHANNELS 3  Xrotation Yrotation Zrotation
		JOINT right_knee
		{
			OFFSET	28.2	-396.7	2.2
			CHANNELS 3  Xrotation Yrotation Zrotation
			JOINT right_ankle
			{
				OFFSET	11.7	-411.3	35.4
				CHANNELS 3  Xrotation Yrotation Zrotation
				JOINT right_toes
				{
					OFFSET	0	-60	-88.6
					CHANNELS 3  Xrotation Yrotation Zrotation
					JOINT right_foot_ee
					{
						OFFSET	22.5	-16.5	-42.2
						CHANNELS 3  Xrotation Yrotation Zrotation
						End Site
						{
							OFFSET	1	0	0
						}
					}
				}
			}
		}
	}
}
MOTION
Frames: 5
Frame Time: 0.02
2800.94 716.97 -1473.77 -1.47179479833 46.541253533 16.0315084572 0.209448 -0.732503 -4.87995 0.222592 -0.420879 -4.91655 0.264819 0.60017 -4.89794 0.231402 -0.179927 -4.93121 2.76465 0.333359 -0.602249 2.76739 1.09434 -0.644756 -0.0 0.0 -0.0 13.6403 -22.9475 27.4953 -15.6066 -29.3707 39.5181 1.75676 -41.0277 0.657354 63.9273 -2.13577 -7.45804 -0.171452 -2.17243 -2.06897 -0.0 0.0 -0.0 4.35435 -12.6884 -8.75128 -30.8501 20.3436 -57.598 0.694658 18.9891 -0.116179 56.0379 1.43416 6.73065 -1.28211 -9.01191 4.52164 0.0 0.0 0.0 0.313156 24.1041 -24.3658 -12.4071 0.308828 1.87529 37.7568 -29.7712 -5.67688 -4.50072 0.0 0.0 -0.0 0.0 -0.0 20.367 -5.10603 -15.5342 4.70904 0.222361 0.688068 17.2761 -11.6589 2.39424 -38.7137 0.0 0.0 0.0 0.0 0.0 
2786.27155486 711.593 -1493.58026797 -1.5984936541 49.1241282028 14.8950987676 0.462896 -0.622904 -4.6746 0.47499 -0.324522 -4.70467 0.506261 0.6313 -4.67347 0.475812 -0.11386 -4.71445 2.93048 0.811543 -0.00922508 2.93249 1.42276 0.0481475 -0.0 0.0 -0.0 12.7696 -19.1897 25.765 -13.8637 -28.7029 44.1386 1.97471 -44.3641 0.805207 62.6084 -2.01157 -7.34322 -0.16384 -3.20628 -2.45852 -0.0 0.0 -0.0 4.50045 -13.099 -8.99984 -30.7784 20.2141 -57.7927 0.724585 19.745 -0.126104 56.515 1.47367 6.7773 -1.15434 -9.0135 3.69605 0.0 0.0 0.0 -0.338044 22.9702 -24.9447 -12.5551 0.310046 1.89798 37.381 -29.9395 -5.64964 -3.13537 0.0 0.0 -0.0 0.0 -0.0 19.7324 -4.94677 -14.4998 4.96202 0.235903 0.724503 15.7661 -10.8348 2.19645 -38.9105 0.0 0.0 0.0 0.0 0.0 
2786.75349153 711.593 -1493.92819876 -1.55561207549 47.7429822481 14.8377889314 0.462896 -0.622904 -4.6746 0.47499 -0.324522 -4.70467 0.506261 0.6313 -4.67347 0.475812 -0.11386 -4.71445 2.93048 0.811543 -0.00922508 2.93249 1.42276 0.0481475 -0.0 0.0 -0.0 12.7696 -19.1897 25.765 -13.8637 -28.7029 44.1386 1.97471 -44.3641 0.805207 62.6084 -2.01157 -7.34322 -0.16384 -3.20628 -2.45852 -0.0 0.0 -0.0 4.50045 -13.099 -8.99984 -30.7784 20.2141 -57.7927 0.724585 19.745 -0.126104 56.515 1.47367 6.7773 -1.15434 -9.0135 3.69605 0.0 0.0 0.0 -0.338044 22.9702 -24.9447 -12.5551 0.310046 1.89798 37.381 -29.9395 -5.64964 -3.13537 0.0 0.0 -0.0 0.0 -0.0 19.7324 -4.94677 -14.4998 4.96202 0.235903 0.724503 15.7661 -10.8348 2.19645 -38.9105 0.0 0.0 0.0 0.0 0.0 
2787.073208 711.593 -1494.14945239 -1.52925708559 46.8395560478 14.8019237067 0.462896 -0.622904 -4.6746 0.47499 -0.324522 -4.70467 0.506261 0.6313 -4.67347 0.475812 -0.11386 -4.71445 2.93048 0.811543 -0.00922508 2.93249 1.42276 0.0481475 -0.0 0.0 -0.0 12.7696 -19.1897 25.765 -13.8637 -28.7029 44.1386 1.97471 -44.3641 0.805207 62.6084 -2.01157 -7.34322 -0.16384 -3.20628 -2.45852 -0.0 0.0 -0.0 4.50045 -13.099 -8.99984 -30.7784 20.2141 -57.7927 0.724585 19.745 -0.126104 56.515 1.47367 6.7773 -1.15434 -9.0135 3.69605 0.0 0.0 0.0 -0.338044 22.9702 -24.9447 -12.5551 0.310046 1.89798 37.381 -29.9395 -5.64964 -3.13537 0.0 0.0 -0.0 0.0 -0.0 19.7324 -4.94677 -14.4998 4.96202 0.235903 0.724503 15.7661 -10.8348 2.19645 -38.9105 0.0 0.0 0.0 0.0 0.0 
2763.35799482 717.796 -1540.38657591 -3.82658676432 54.9202269631 16.042745569 0.712136 -0.754664 -4.54896 0.723524 -0.463985 -4.58765 0.764546 0.449856 -4.58905 0.735279 -0.279754 -4.60253 3.07847 0.792192 1.1592 3.0818 0.389218 1.34906 -0.0 0.0 -0.0 11.5603 -12.1793 23.2695 -13.077 -25.2612 50.9928 1.84759 -42.4619 0.717835 61.6848 -1.9262 -7.26114 -0.194179 -5.36184 -3.58374 -0.0 0.0 -0.0 5.44094 -21.2272 -10.3363 -28.0304 19.5076 -52.1014 0.596573 16.4639 -0.0863077 56.061 1.43606 6.73291 -1.24146 -5.07304 6.03801 0.0 0.0 0.0 -0.875681 20.6322 -24.957 -14.6694 0.32104 2.22217 37.6334 -29.6296 -5.65453 4.79275 -0.0 -0.0 -0.0 0.0 -0.0 17.2047 -6.46224 -14.6663 4.53001 0.212875 0.66225 24.0789 -9.76285 3.22771 -35.427 0.0 0.0 0.0 0.0 0.0 
